<?xml version="1.0" encoding="UTF-8" standalone="no" ?>
<!DOCTYPE svg PUBLIC "-//W3C//DTD SVG 1.1//EN" "http://www.w3.org/Graphics/SVG/1.1/DTD/svg11.dtd">
<svg xmlns="http://www.w3.org/2000/svg" xmlns:xlink="http://www.w3.org/1999/xlink" version="1.1" width="86.81890625" height="53.19783999999999" xml:space="preserve">
<desc>Created with Fabric.js 1.6.0-rc.1</desc>
<defs></defs>
<g style="stroke: none; stroke-width: 1; stroke-dasharray: none; stroke-linecap: butt; stroke-linejoin: miter; stroke-miterlimit: 10; fill: none; fill-rule: nonzero; opacity: 1;" transform="translate(10 10) scale(0.5 0.5)" >
  <path d="M 46 41.5 H 26 c -6.627 0 -12 -5.373 -12 -12 v 0 c 0 -6.627 5.373 -12 12 -12 h 20 v -14 H 26 c -14.359 0 -26 11.641 -26 26 v 0 c 0 14.359 11.641 26 26 26 h 20 V 41.5 z" style="stroke: none; stroke-width: 1; stroke-dasharray: none; stroke-linecap: butt; stroke-linejoin: miter; stroke-miterlimit: 10; fill: #42615d; fill-rule: nonzero; opacity: 1;" transform=" matrix(1 0 0 1 0 0) " stroke-linecap="round" />
  <path d="M 53 7.5 h 1 c 0.552 0 1 -0.447 1 -1 s -0.448 -1 -1 -1 h -1 c -0.552 0 -1 0.447 -1 1 S 52.448 7.5 53 7.5 z" style="stroke: none; stroke-width: 1; stroke-dasharray: none; stroke-linecap: butt; stroke-linejoin: miter; stroke-miterlimit: 10; fill: #C7CAC7; fill-rule: nonzero; opacity: 1;" transform=" matrix(1 0 0 1 0 0) " stroke-linecap="round" />
  <path d="M 49 7.5 h 1 c 0.552 0 1 -0.447 1 -1 s -0.448 -1 -1 -1 h -1 c -0.552 0 -1 0.447 -1 1 S 48.448 7.5 49 7.5 z" style="stroke: none; stroke-width: 1; stroke-dasharray: none; stroke-linecap: butt; stroke-linejoin: miter; stroke-miterlimit: 10; fill: #C7CAC7; fill-rule: nonzero; opacity: 1;" transform=" matrix(1 0 0 1 0 0) " stroke-linecap="round" />
  <path d="M 57 7.5 h 1 c 0.552 0 1 -0.447 1 -1 s -0.448 -1 -1 -1 h -1 c -0.552 0 -1 0.447 -1 1 S 56.448 7.5 57 7.5 z" style="stroke: none; stroke-width: 1; stroke-dasharray: none; stroke-linecap: butt; stroke-linejoin: miter; stroke-miterlimit: 10; fill: #C7CAC7; fill-rule: nonzero; opacity: 1;" transform=" matrix(1 0 0 1 0 0) " stroke-linecap="round" />
  <path d="M 54 13.5 h -1 c -0.552 0 -1 0.447 -1 1 s 0.448 1 1 1 h 1 c 0.552 0 1 -0.447 1 -1 S 54.552 13.5 54 13.5 z" style="stroke: none; stroke-width: 1; stroke-dasharray: none; stroke-linecap: butt; stroke-linejoin: miter; stroke-miterlimit: 10; fill: #C7CAC7; fill-rule: nonzero; opacity: 1;" transform=" matrix(1 0 0 1 0 0) " stroke-linecap="round" />
  <path d="M 49 15.5 h 1 c 0.552 0 1 -0.447 1 -1 s -0.448 -1 -1 -1 h -1 c -0.552 0 -1 0.447 -1 1 S 48.448 15.5 49 15.5 z" style="stroke: none; stroke-width: 1; stroke-dasharray: none; stroke-linecap: butt; stroke-linejoin: miter; stroke-miterlimit: 10; fill: #C7CAC7; fill-rule: nonzero; opacity: 1;" transform=" matrix(1 0 0 1 0 0) " stroke-linecap="round" />
  <path d="M 58 13.5 h -1 c -0.552 0 -1 0.447 -1 1 s 0.448 1 1 1 h 1 c 0.552 0 1 -0.447 1 -1 S 58.552 13.5 58 13.5 z" style="stroke: none; stroke-width: 1; stroke-dasharray: none; stroke-linecap: butt; stroke-linejoin: miter; stroke-miterlimit: 10; fill: #C7CAC7; fill-rule: nonzero; opacity: 1;" transform=" matrix(1 0 0 1 0 0) " stroke-linecap="round" />
  <path d="M 50 10.5 c 0 0.553 0.448 1 1 1 h 1 c 0.552 0 1 -0.447 1 -1 s -0.448 -1 -1 -1 h -1 C 50.448 9.5 50 9.947 50 10.5 z" style="stroke: none; stroke-width: 1; stroke-dasharray: none; stroke-linecap: butt; stroke-linejoin: miter; stroke-miterlimit: 10; fill: #C7CAC7; fill-rule: nonzero; opacity: 1;" transform=" matrix(1 0 0 1 0 0) " stroke-linecap="round" />
  <path d="M 54 10.5 c 0 0.553 0.448 1 1 1 h 1 c 0.552 0 1 -0.447 1 -1 s -0.448 -1 -1 -1 h -1 C 54.448 9.5 54 9.947 54 10.5 z" style="stroke: none; stroke-width: 1; stroke-dasharray: none; stroke-linecap: butt; stroke-linejoin: miter; stroke-miterlimit: 10; fill: #C7CAC7; fill-rule: nonzero; opacity: 1;" transform=" matrix(1 0 0 1 0 0) " stroke-linecap="round" />
  <path d="M 54 44.5 h -1 c -0.552 0 -1 0.447 -1 1 s 0.448 1 1 1 h 1 c 0.552 0 1 -0.447 1 -1 S 54.552 44.5 54 44.5 z" style="stroke: none; stroke-width: 1; stroke-dasharray: none; stroke-linecap: butt; stroke-linejoin: miter; stroke-miterlimit: 10; fill: #C7CAC7; fill-rule: nonzero; opacity: 1;" transform=" matrix(1 0 0 1 0 0) " stroke-linecap="round" />
  <path d="M 49 46.5 h 1 c 0.552 0 1 -0.447 1 -1 s -0.448 -1 -1 -1 h -1 c -0.552 0 -1 0.447 -1 1 S 48.448 46.5 49 46.5 z" style="stroke: none; stroke-width: 1; stroke-dasharray: none; stroke-linecap: butt; stroke-linejoin: miter; stroke-miterlimit: 10; fill: #C7CAC7; fill-rule: nonzero; opacity: 1;" transform=" matrix(1 0 0 1 0 0) " stroke-linecap="round" />
  <path d="M 58 44.5 h -1 c -0.552 0 -1 0.447 -1 1 s 0.448 1 1 1 h 1 c 0.552 0 1 -0.447 1 -1 S 58.552 44.5 58 44.5 z" style="stroke: none; stroke-width: 1; stroke-dasharray: none; stroke-linecap: butt; stroke-linejoin: miter; stroke-miterlimit: 10; fill: #C7CAC7; fill-rule: nonzero; opacity: 1;" transform=" matrix(1 0 0 1 0 0) " stroke-linecap="round" />
  <path d="M 54 52.5 h -1 c -0.552 0 -1 0.447 -1 1 s 0.448 1 1 1 h 1 c 0.552 0 1 -0.447 1 -1 S 54.552 52.5 54 52.5 z" style="stroke: none; stroke-width: 1; stroke-dasharray: none; stroke-linecap: butt; stroke-linejoin: miter; stroke-miterlimit: 10; fill: #C7CAC7; fill-rule: nonzero; opacity: 1;" transform=" matrix(1 0 0 1 0 0) " stroke-linecap="round" />
  <path d="M 50 52.5 h -1 c -0.552 0 -1 0.447 -1 1 s 0.448 1 1 1 h 1 c 0.552 0 1 -0.447 1 -1 S 50.552 52.5 50 52.5 z" style="stroke: none; stroke-width: 1; stroke-dasharray: none; stroke-linecap: butt; stroke-linejoin: miter; stroke-miterlimit: 10; fill: #C7CAC7; fill-rule: nonzero; opacity: 1;" transform=" matrix(1 0 0 1 0 0) " stroke-linecap="round" />
  <path d="M 58 52.5 h -1 c -0.552 0 -1 0.447 -1 1 s 0.448 1 1 1 h 1 c 0.552 0 1 -0.447 1 -1 S 58.552 52.5 58 52.5 z" style="stroke: none; stroke-width: 1; stroke-dasharray: none; stroke-linecap: butt; stroke-linejoin: miter; stroke-miterlimit: 10; fill: #C7CAC7; fill-rule: nonzero; opacity: 1;" transform=" matrix(1 0 0 1 0 0) " stroke-linecap="round" />
  <path d="M 53 49.5 c 0 -0.553 -0.448 -1 -1 -1 h -1 c -0.552 0 -1 0.447 -1 1 s 0.448 1 1 1 h 1 C 52.552 50.5 53 50.053 53 49.5 z" style="stroke: none; stroke-width: 1; stroke-dasharray: none; stroke-linecap: butt; stroke-linejoin: miter; stroke-miterlimit: 10; fill: #C7CAC7; fill-rule: nonzero; opacity: 1;" transform=" matrix(1 0 0 1 0 0) " stroke-linecap="round" />
  <path d="M 57 49.5 c 0 -0.553 -0.448 -1 -1 -1 h -1 c -0.552 0 -1 0.447 -1 1 s 0.448 1 1 1 h 1 C 56.552 50.5 57 50.053 57 49.5 z" style="stroke: none; stroke-width: 1; stroke-dasharray: none; stroke-linecap: butt; stroke-linejoin: miter; stroke-miterlimit: 10; fill: #C7CAC7; fill-rule: nonzero; opacity: 1;" transform=" matrix(1 0 0 1 0 0) " stroke-linecap="round" />
  <rect x="32" y="3.5" rx="0" ry="0" width="14" height="14" style="stroke: none; stroke-width: 1; stroke-dasharray: none; stroke-linecap: butt; stroke-linejoin: miter; stroke-miterlimit: 10; fill: #EBBA16; fill-rule: nonzero; opacity: 1;" transform=" matrix(1 0 0 1 0 0) "/>
  <rect x="32" y="41.5" rx="0" ry="0" width="14" height="14" style="stroke: none; stroke-width: 1; stroke-dasharray: none; stroke-linecap: butt; stroke-linejoin: miter; stroke-miterlimit: 10; fill: #EBBA16; fill-rule: nonzero; opacity: 1;" transform=" matrix(1 0 0 1 0 0) "/>
</g>
  <g transform="translate(59.46 27.1) scale(0.36 0.31)">
   <text font-family="Cargo Bay" font-size="40" font-style="italic" font-weight="bold" style="stroke: none; stroke-width: 1; stroke-dasharray: none; stroke-linecap: butt; stroke-linejoin: miter; stroke-miterlimit: 10; fill: #38909c; fill-rule: nonzero; opacity: 1;" ><tspan x="-48.72" y="-17.23" style="stroke: none; stroke-width: 0; stroke-dasharray: none; stroke-linecap: butt; stroke-linejoin: miter; stroke-miterlimit: 4; fill: #38909c; fill-rule: ; opacity: 1;">m</tspan><tspan x="-24.29" y="-17.23" style="stroke: none; stroke-width: 0; stroke-dasharray: none; stroke-linecap: butt; stroke-linejoin: miter; stroke-miterlimit: 4; fill: #38909c; fill-rule: ; opacity: 1;">y</tspan><tspan x="-48.72" y="35.2" style="stroke: none; stroke-width: 0; stroke-dasharray: none; stroke-linecap: butt; stroke-linejoin: miter; stroke-miterlimit: 4; fill: #38909c; fill-rule: ; opacity: 1;">c</tspan><tspan x="-24.37" y="35.2" style="stroke: none; stroke-width: 0; stroke-dasharray: none; stroke-linecap: butt; stroke-linejoin: miter; stroke-miterlimit: 4; fill: #38909c; fill-rule: ; opacity: 1;">o</tspan><tspan x="-0.09" y="35.2" style="stroke: none; stroke-width: 0; stroke-dasharray: none; stroke-linecap: butt; stroke-linejoin: miter; stroke-miterlimit: 4; fill: #38909c; fill-rule: ; opacity: 1;">d</tspan><tspan x="24.13" y="35.2" style="stroke: none; stroke-width: 0; stroke-dasharray: none; stroke-linecap: butt; stroke-linejoin: miter; stroke-miterlimit: 4; fill: #38909c; fill-rule: ; opacity: 1;">e</tspan></text>
 </g>
</svg>